ffmpeg started on 2016-12-05 at 14:16:29
Report written to "Output/x264/results/ffmpeg/crowd_run_2160p50faster3500k.log"
Command line:
Tools/ffmpeg/ffmpeg -benchmark -y -i Input/y4m/crowd_run_2160p50.y4m -c:v libx264 -preset faster -b:v 3500k -an Output/x264/encoded/crowd_run_2160p50faster3500k.mkv
ffmpeg version N-82227-gdb23fde Copyright (c) 2000-2016 the FFmpeg developers
  built with gcc 5.4.0 (Ubuntu 5.4.0-6ubuntu1~16.04.2) 20160609
  configuration: --prefix=/home/jaroslav/ffmpeg_build --pkg-config-flags=--static --extra-cflags=-I/home/jaroslav/ffmpeg_build/include --extra-ldflags=-L/home/jaroslav/ffmpeg_build/lib --bindir=/home/jaroslav/bin --enable-gpl --enable-libass --enable-libfdk-aac --enable-libfreetype --enable-libmp3lame --enable-libopus --enable-libtheora --enable-libvorbis --enable-libvpx --enable-libx264 --enable-libx265 --enable-nvenc --enable-libmfx --enable-libxvid --enable-libgsm --enable-libopencore-amrnb --enable-version3 --enable-nonfree
  libavutil      55. 35.100 / 55. 35.100
  libavcodec     57. 66.101 / 57. 66.101
  libavformat    57. 57.100 / 57. 57.100
  libavdevice    57.  2.100 / 57.  2.100
  libavfilter     6. 66.100 /  6. 66.100
  libswscale      4.  3.100 /  4.  3.100
  libswresample   2.  4.100 /  2.  4.100
  libpostproc    54.  2.100 / 54.  2.100
Input #0, yuv4mpegpipe, from 'Input/y4m/crowd_run_2160p50.y4m':
  Duration: 00:00:10.00, start: 0.000000, bitrate: 4976642 kb/s
    Stream #0:0: Video: rawvideo (I420 / 0x30323449), yuv420p(progressive), 3840x2160, SAR 1:1 DAR 16:9, 50 fps, 50 tbr, 50 tbn, 50 tbc
[libx264 @ 0x281b1c0] using SAR=1/1
[libx264 @ 0x281b1c0] using cpu capabilities: MMX2 SSE2Fast SSSE3 SSE4.2 AVX FMA3 AVX2 LZCNT BMI2
[libx264 @ 0x281b1c0] profile High, level 5.2
[libx264 @ 0x281b1c0] 264 - core 148 - H.264/MPEG-4 AVC codec - Copyleft 2003-2016 - http://www.videolan.org/x264.html - options: cabac=1 ref=2 deblock=1:0:0 analyse=0x3:0x113 me=hex subme=4 psy=1 psy_rd=1.00:0.00 mixed_ref=0 me_range=16 chroma_me=1 trellis=1 8x8dct=1 cqm=0 deadzone=21,11 fast_pskip=1 chroma_qp_offset=0 threads=6 lookahead_threads=1 sliced_threads=0 nr=0 decimate=1 interlaced=0 bluray_compat=0 constrained_intra=0 bframes=3 b_pyramid=2 b_adapt=1 b_bias=0 direct=1 weightb=1 open_gop=0 weightp=1 keyint=250 keyint_min=25 scenecut=40 intra_refresh=0 rc_lookahead=20 rc=abr mbtree=1 bitrate=3500 ratetol=1.0 qcomp=0.60 qpmin=0 qpmax=69 qpstep=4 ip_ratio=1.40 aq=1:1.00
Output #0, matroska, to 'Output/x264/encoded/crowd_run_2160p50faster3500k.mkv':
  Metadata:
    encoder         : Lavf57.57.100
    Stream #0:0: Video: h264 (libx264) (H264 / 0x34363248), yuv420p, 3840x2160 [SAR 1:1 DAR 16:9], q=-1--1, 3500 kb/s, 50 fps, 1k tbn, 50 tbc
    Metadata:
      encoder         : Lavc57.66.101 libx264
    Side data:
      cpb: bitrate max/min/avg: 0/0/3500000 buffer size: 0 vbv_delay: -1
Stream mapping:
  Stream #0:0 -> #0:0 (rawvideo (native) -> h264 (libx264))
Press [q] to stop, [?] for help
frame=   10 fps=0.0 q=0.0 size=       0kB time=00:00:00.00 bitrate=N/A speed=   0x    frame=   26 fps= 25 q=0.0 size=       0kB time=00:00:00.00 bitrate=N/A speed=   0x    frame=   27 fps= 13 q=0.0 size=       0kB time=00:00:00.00 bitrate=N/A speed=   0x    frame=   32 fps= 12 q=44.0 size=       1kB time=-00:00:00.01 bitrate=N/A speed=N/A    frame=   40 fps= 13 q=56.0 size=       1kB time=00:00:00.14 bitrate=  41.6kbits/s speed=0.0447x    frame=   48 fps= 13 q=59.0 size=       1kB time=00:00:00.30 bitrate=  19.5kbits/s speed=0.0818x    frame=   57 fps= 14 q=61.0 size=       1kB time=00:00:00.48 bitrate=  12.2kbits/s speed=0.114x    frame=   66 fps= 14 q=61.0 size=       1kB time=00:00:00.66 bitrate=   8.9kbits/s speed=0.14x    frame=   75 fps= 14 q=62.0 size=       1kB time=00:00:00.84 bitrate=   7.0kbits/s speed=0.161x    frame=   84 fps= 14 q=62.0 size=       1kB time=00:00:01.02 bitrate=   5.7kbits/s speed=0.174x    frame=   93 fps= 15 q=62.0 size=       1kB time=00:00:01.20 bitrate=   4.9kbits/s speed=0.188x    frame=  101 fps= 15 q=62.0 size=       1kB time=00:00:01.36 bitrate=   4.3kbits/s speed=0.198x    frame=  110 fps= 15 q=62.0 size=       1kB time=00:00:01.54 bitrate=   3.8kbits/s speed=0.209x    frame=  119 fps= 15 q=62.0 size=       1kB time=00:00:01.72 bitrate=   3.4kbits/s speed=0.218x    frame=  128 fps= 15 q=62.0 size=       1kB time=00:00:01.90 bitrate=   3.1kbits/s speed=0.223x    frame=  137 fps= 15 q=62.0 size=       1kB time=00:00:02.08 bitrate=   2.8kbits/s speed=0.23x    frame=  146 fps= 15 q=62.0 size=       1kB time=00:00:02.26 bitrate=   2.6kbits/s speed=0.237x    frame=  155 fps= 15 q=61.0 size=       1kB time=00:00:02.44 bitrate=   2.4kbits/s speed=0.243x    frame=  164 fps= 15 q=61.0 size=       1kB time=00:00:02.62 bitrate=   2.2kbits/s speed=0.245x    frame=  173 fps= 15 q=61.0 size=       1kB time=00:00:02.80 bitrate=   2.1kbits/s speed=0.25x    frame=  182 fps= 16 q=61.0 size=       1kB time=00:00:02.98 bitrate=   2.0kbits/s speed=0.255x    frame=  191 fps= 16 q=61.0 size=       1kB time=00:00:03.16 bitrate=   1.9kbits/s speed=0.259x    frame=  200 fps= 16 q=61.0 size=       1kB time=00:00:03.34 bitrate=   1.8kbits/s speed=0.26x    frame=  209 fps= 16 q=61.0 size=       1kB time=00:00:03.52 bitrate=   1.7kbits/s speed=0.264x    frame=  218 fps= 16 q=61.0 size=       1kB time=00:00:03.70 bitrate=   1.6kbits/s speed=0.267x    frame=  227 fps= 16 q=61.0 size=       1kB time=00:00:03.88 bitrate=   1.5kbits/s speed=0.27x    frame=  236 fps= 16 q=61.0 size=       1kB time=00:00:04.06 bitrate=   1.4kbits/s speed=0.271x    frame=  245 fps= 16 q=61.0 size=       1kB time=00:00:04.24 bitrate=   1.4kbits/s speed=0.273x    frame=  254 fps= 16 q=61.0 size=       1kB time=00:00:04.42 bitrate=   1.3kbits/s speed=0.276x    frame=  263 fps= 16 q=61.0 size=       1kB time=00:00:04.60 bitrate=   1.3kbits/s speed=0.278x    frame=  272 fps= 16 q=61.0 size=       1kB time=00:00:04.78 bitrate=   1.2kbits/s speed=0.279x    frame=  277 fps= 15 q=61.0 size=       1kB time=00:00:04.88 bitrate=   1.2kbits/s speed=0.272x    frame=  286 fps= 15 q=61.0 size=    2329kB time=00:00:05.06 bitrate=3769.9kbits/s speed=0.274x    frame=  294 fps= 15 q=61.0 size=    2329kB time=00:00:05.22 bitrate=3654.3kbits/s speed=0.273x    frame=  303 fps= 15 q=61.0 size=    2329kB time=00:00:05.40 bitrate=3532.6kbits/s speed=0.275x    frame=  312 fps= 15 q=61.0 size=    2329kB time=00:00:05.58 bitrate=3418.6kbits/s speed=0.277x    frame=  321 fps= 16 q=62.0 size=    2329kB time=00:00:05.76 bitrate=3311.8kbits/s speed=0.279x    frame=  330 fps= 15 q=62.0 size=    2329kB time=00:00:05.94 bitrate=3211.5kbits/s speed=0.279x    frame=  339 fps= 16 q=62.0 size=    2329kB time=00:00:06.12 bitrate=3117.0kbits/s speed=0.28x    frame=  348 fps= 16 q=62.0 size=    2329kB time=00:00:06.30 bitrate=3028.0kbits/s speed=0.282x    frame=  357 fps= 16 q=62.0 size=    2329kB time=00:00:06.48 bitrate=2943.9kbits/s speed=0.283x    frame=  366 fps= 16 q=62.0 size=    2329kB time=00:00:06.66 bitrate=2864.3kbits/s speed=0.283x    frame=  375 fps= 16 q=62.0 size=    2329kB time=00:00:06.84 bitrate=2789.0kbits/s speed=0.285x    frame=  384 fps= 16 q=62.0 size=    2329kB time=00:00:07.02 bitrate=2717.5kbits/s speed=0.286x    frame=  393 fps= 16 q=62.0 size=    2329kB time=00:00:07.20 bitrate=2649.5kbits/s speed=0.288x    frame=  402 fps= 16 q=62.0 size=    2329kB time=00:00:07.38 bitrate=2584.9kbits/s speed=0.288x    frame=  411 fps= 16 q=62.0 size=    2329kB time=00:00:07.56 bitrate=2523.4kbits/s speed=0.289x    frame=  416 fps= 16 q=62.0 size=    2329kB time=00:00:07.66 bitrate=2490.5kbits/s speed=0.286x    frame=  426 fps= 16 q=62.0 size=    2329kB time=00:00:07.86 bitrate=2427.1kbits/s speed=0.288x    frame=  435 fps= 16 q=62.0 size=    2329kB time=00:00:08.04 bitrate=2372.8kbits/s speed=0.289x    frame=  444 fps= 16 q=62.0 size=    2329kB time=00:00:08.22 bitrate=2320.8kbits/s speed=0.29x    frame=  453 fps= 16 q=62.0 size=    2329kB time=00:00:08.40 bitrate=2271.1kbits/s speed=0.291x    frame=  462 fps= 16 q=62.0 size=    2329kB time=00:00:08.58 bitrate=2223.4kbits/s speed=0.291x    frame=  471 fps= 16 q=63.0 size=    2329kB time=00:00:08.76 bitrate=2177.8kbits/s speed=0.292x    frame=  480 fps= 16 q=63.0 size=    2329kB time=00:00:08.94 bitrate=2133.9kbits/s speed=0.293x    frame=  489 fps= 16 q=63.0 size=    2329kB time=00:00:09.12 bitrate=2091.8kbits/s speed=0.293x    frame=  498 fps= 16 q=63.0 size=    2329kB time=00:00:09.30 bitrate=2051.3kbits/s speed=0.293x    frame=  500 fps= 15 q=-1.0 Lsize=    4659kB time=00:00:09.94 bitrate=3839.2kbits/s speed=0.301x    
video:4655kB audio:0kB subtitle:0kB other streams:0kB global headers:0kB muxing overhead: 0.091140%
bench: utime=101.972s
bench: maxrss=1339004kB
[libx264 @ 0x281b1c0] frame I:2     Avg QP:44.94  size:102914
[libx264 @ 0x281b1c0] frame P:126   Avg QP:50.86  size: 16232
[libx264 @ 0x281b1c0] frame B:372   Avg QP:50.90  size:  6759
[libx264 @ 0x281b1c0] consecutive B-frames:  0.8%  0.0%  0.0% 99.2%
[libx264 @ 0x281b1c0] mb I  I16..4: 50.4% 47.2%  2.5%
[libx264 @ 0x281b1c0] mb P  I16..4:  9.8%  5.7%  0.0%  P16..4: 13.6%  1.2%  0.2%  0.0%  0.0%    skip:69.6%
[libx264 @ 0x281b1c0] mb B  I16..4:  0.0%  0.0%  0.0%  B16..8: 10.2%  0.1%  0.0%  direct: 2.8%  skip:86.9%  L0:46.4% L1:53.5% BI: 0.1%
[libx264 @ 0x281b1c0] final ratefactor: 53.87
[libx264 @ 0x281b1c0] 8x8 transform intra:38.1% inter:96.0%
[libx264 @ 0x281b1c0] coded y,uvDC,uvAC intra: 8.7% 33.2% 1.5% inter: 0.3% 2.8% 0.0%
[libx264 @ 0x281b1c0] i16 v,h,dc,p: 75% 17%  7%  1%
[libx264 @ 0x281b1c0] i8 v,h,dc,ddl,ddr,vr,hd,vl,hu: 11% 11% 53%  5%  4%  4%  4%  4%  4%
[libx264 @ 0x281b1c0] i4 v,h,dc,ddl,ddr,vr,hd,vl,hu: 21% 16% 14%  9%  9%  9%  7%  7%  7%
[libx264 @ 0x281b1c0] i8c dc,h,v,p: 98%  1%  1%  0%
[libx264 @ 0x281b1c0] Weighted P-Frames: Y:1.6% UV:0.0%
[libx264 @ 0x281b1c0] ref P L0: 58.0% 42.0%
[libx264 @ 0x281b1c0] ref B L0: 81.3% 18.7%
[libx264 @ 0x281b1c0] ref B L1: 92.6%  7.4%
[libx264 @ 0x281b1c0] kb/s:3812.48
